<?xml version="1.0" encoding="utf-8"?>
<!-- Generator: Adobe Illustrator 16.0.0, SVG Export Plug-In . SVG Version: 6.00 Build 0)  -->
<!DOCTYPE svg PUBLIC "-//W3C//DTD SVG 1.1//EN" "http://www.w3.org/Graphics/SVG/1.1/DTD/svg11.dtd">
<svg version="1.1" id="Layer_1" xmlns="http://www.w3.org/2000/svg" xmlns:xlink="http://www.w3.org/1999/xlink" x="0px" y="0px"
	 viewBox="0 0 94.56 67" enable-background="new 0 0 94.56 67" xml:space="preserve">
<g>
	<path clip-path="url(#SVGID_2_)" d="M8.223,52.095c-0.015-0.035-0.049-0.057-0.087-0.057H6.54c-0.037,0-0.071,0.022-0.086,0.057
		L0.008,66.685c-0.013,0.029-0.01,0.063,0.007,0.09c0.018,0.027,0.048,0.043,0.08,0.043h1.761c0.038,0,0.072-0.022,0.087-0.057
		l1.695-3.86h7.337l1.736,3.86c0.015,0.034,0.049,0.056,0.086,0.056h1.782c0.032,0,0.062-0.016,0.08-0.043s0.02-0.061,0.007-0.09
		L8.223,52.095z M10.351,61.219H4.304l3.024-6.739L10.351,61.219z"/>
	<path clip-path="url(#SVGID_2_)" d="M24.131,60.11c2.077-0.446,3.311-1.925,3.311-3.981c0-2.475-1.851-4.074-4.716-4.074h-6.507
		c-0.053,0-0.095,0.042-0.095,0.095v14.506c0,0.052,0.042,0.096,0.095,0.096h1.679c0.052,0,0.095-0.043,0.095-0.096v-6.35h4.083
		l4.489,6.404c0.018,0.025,0.047,0.041,0.079,0.041h1.989c0.036,0,0.068-0.021,0.084-0.052c0.016-0.032,0.014-0.07-0.006-0.099
		L24.131,60.11z M25.552,56.191c0,1.556-1.041,2.413-2.931,2.413h-4.629v-4.825h4.629C24.484,53.778,25.552,54.658,25.552,56.191"/>
	<path clip-path="url(#SVGID_2_)" d="M41.113,63.835c-0.033-0.016-0.072-0.011-0.1,0.011c-1.178,0.935-2.556,1.389-4.21,1.389
		c-1.582,0-3.034-0.582-4.09-1.639c-1.07-1.069-1.659-2.559-1.659-4.193c0-3.325,2.445-5.832,5.687-5.832
		c1.502,0,2.726,0.366,3.968,1.187c0.029,0.019,0.066,0.021,0.098,0.004c0.03-0.017,0.05-0.048,0.05-0.083v-1.72
		c0-0.033-0.017-0.063-0.045-0.081c-1.153-0.721-2.491-1.072-4.091-1.072c-2.092,0-4.011,0.76-5.4,2.139
		c-1.403,1.392-2.176,3.331-2.176,5.458c0,2.141,0.776,4.084,2.184,5.474C32.715,66.246,34.629,67,36.719,67
		c1.709,0,3.233-0.443,4.407-1.282c0.025-0.018,0.04-0.047,0.04-0.077v-1.72C41.166,63.884,41.146,63.851,41.113,63.835"/>
	<path clip-path="url(#SVGID_2_)" d="M52.981,58.74c1.09-0.539,1.707-1.627,1.707-3.033c0-2.232-1.64-3.619-4.281-3.619h-6.341
		c-0.053,0-0.095,0.042-0.095,0.095V66.69c0,0.052,0.042,0.095,0.095,0.095h6.963c2.966,0,4.882-1.624,4.882-4.136
		C55.911,60.641,54.797,59.169,52.981,58.74 M50.118,58.161h-4.278v-4.349h4.278c2.233,0,2.702,1.199,2.702,2.206
		C52.82,57.4,51.86,58.161,50.118,58.161 M45.839,59.843h4.879c2.063,0,3.2,0.916,3.2,2.578c0,1.703-1.137,2.641-3.2,2.641h-4.879
		V59.843z"/>
	<path clip-path="url(#SVGID_2_)" d="M68.74,65.028h-8.547v-5.281h6.724c0.053,0,0.095-0.042,0.095-0.095v-1.534
		c0-0.052-0.042-0.095-0.095-0.095h-6.724v-4.245h8.236c0.053,0,0.095-0.042,0.095-0.095V52.15c0-0.053-0.042-0.095-0.095-0.095
		H58.42c-0.054,0-0.096,0.042-0.096,0.095v14.506c0,0.052,0.042,0.096,0.096,0.096H68.74c0.053,0,0.095-0.043,0.095-0.096v-1.534
		C68.834,65.07,68.792,65.028,68.74,65.028"/>
	<path clip-path="url(#SVGID_2_)" d="M81.872,65.028h-8.547v-5.281h6.724c0.052,0,0.095-0.042,0.095-0.095v-1.534
		c0-0.052-0.043-0.095-0.095-0.095h-6.724v-4.245h8.236c0.053,0,0.095-0.042,0.095-0.095V52.15c0-0.053-0.042-0.095-0.095-0.095
		h-10.01c-0.053,0-0.095,0.042-0.095,0.095v14.506c0,0.052,0.042,0.096,0.095,0.096h10.32c0.053,0,0.095-0.043,0.095-0.096v-1.534
		C81.966,65.07,81.924,65.028,81.872,65.028"/>
	<path clip-path="url(#SVGID_2_)" d="M89.684,58.276c-0.244-0.073-0.487-0.143-0.727-0.21c-1.73-0.495-3.227-0.922-3.227-2.331
		c0-1.355,1.235-2.164,3.305-2.164c2.033,0,3.658,0.834,4.446,1.332c0.029,0.019,0.065,0.02,0.097,0.003
		c0.03-0.017,0.049-0.049,0.049-0.083v-1.72c0-0.033-0.017-0.063-0.044-0.08c-1.274-0.796-2.86-1.217-4.589-1.217
		c-1.576,0-2.896,0.384-3.818,1.108c-0.887,0.698-1.354,1.658-1.354,2.78c0,2.817,2.489,3.517,4.897,4.194
		c2.281,0.646,3.931,1.113,3.931,2.831c0,1.505-1.494,2.517-3.718,2.517c-2.109,0-4.224-0.905-5.221-1.8
		c-0.028-0.024-0.069-0.031-0.104-0.015c-0.034,0.015-0.056,0.049-0.056,0.086v1.866c0,0.031,0.015,0.059,0.04,0.077
		C84.942,66.42,86.978,67,89.036,67c1.505,0,2.878-0.389,3.866-1.096c1.085-0.776,1.658-1.885,1.658-3.206
		C94.56,59.969,92.253,59.049,89.684,58.276"/>
	<path clip-path="url(#SVGID_2_)" d="M75.525,42.008L51.437,0.2l-0.035-0.062C51.352,0.053,51.26,0,51.162,0h-4.778
		c-0.099,0-0.191,0.053-0.24,0.139L22,42.008c-0.05,0.086-0.05,0.192,0,0.278c0.049,0.086,0.141,0.139,0.24,0.139h6.668
		c0.099,0,0.191-0.053,0.241-0.14l5.507-9.635l5.545,9.675c0.05,0.086,0.142,0.139,0.241,0.139h16.642c0.1,0,0.191-0.053,0.24-0.139
		l5.563-9.706l5.527,9.666c0.049,0.087,0.141,0.14,0.24,0.14h6.63c0.1,0,0.191-0.053,0.241-0.139S75.575,42.094,75.525,42.008
		 M43.868,36.222l-3.112-5.43h16.011l-3.112,5.43H43.868z M40.756,24.562l3.112-5.431h9.787l3.112,5.431H40.756z M51.606,12.891
		h-5.66l2.829-4.951L51.606,12.891z"/>
</g>
</svg>
