<?xml version="1.0" encoding="utf-8"?>
<!-- Generator: Adobe Illustrator 17.1.0, SVG Export Plug-In . SVG Version: 6.00 Build 0)  -->
<!DOCTYPE svg PUBLIC "-//W3C//DTD SVG 1.1//EN" "http://www.w3.org/Graphics/SVG/1.1/DTD/svg11.dtd">
<svg version="1.1" id="Layer_1" xmlns="http://www.w3.org/2000/svg" xmlns:xlink="http://www.w3.org/1999/xlink" x="0px" y="0px"
	 viewBox="0 0 432 288" enable-background="new 0 0 432 288" xml:space="preserve">
<path fill="#fff" d="M127.9,74.2c2.8,0.7,7.4,1.1,10.5,1.1c16.4,0,29.7-10.6,29.7-23.5c0-13-13.3-23.5-29.7-23.5
	c-16.4,0-29.7,10.6-29.7,23.5c0,6,2.9,11.5,7.5,15.6l-5.3,17.1L127.9,74.2z M138.4,62.7c-7.8,0-14.1-5-14.1-11.2
	c0-6.2,6.3-11.2,14.1-11.2c7.8,0,14.1,5,14.1,11.2C152.5,57.6,146.2,62.7,138.4,62.7z"/>
<path fill="#fff" d="M72.8,79.3c-27.6,0-50.1,17.8-50.1,39.7c0,13.3,8.3,25.1,21,32.3l-9.4,21.5l24.9-15.6
	c4.3,1,8.9,1.5,13.5,1.5c27.6,0,50.1-17.8,50.1-39.7C122.9,97.1,100.5,79.3,72.8,79.3z M72.8,144.3c-17.6,0-31.9-11.4-31.9-25.3
	c0-14,14.3-25.3,31.9-25.3c17.6,0,31.9,11.4,31.9,25.3C104.8,133,90.4,144.3,72.8,144.3z"/>
<path fill="#fff" d="M96.3,191c0,5-1.7,6.5-7.4,6.5v-4.3c1.8-0.1,2.5-0.7,2.5-2.3v-20.4h4.8L96.3,191z"/>
<path fill="#fff" d="M101.6,170.5h15.2v4.5h-10.4v5.8h8.3v4.4h-8.3v5.4h10.4v4.5h-15.2V170.5z"/>
<path fill="#fff" d="M130.1,190.8c2.9,0,4.1-1,4.1-3.8v-16.4h4.9v16.4c0,6.1-2.6,8.5-9,8.5c-6.4,0-9-2.5-9-8.5v-16.4h4.9v16.4
	C126,189.8,127.2,190.8,130.1,190.8z"/>
<path fill="#fff" d="M144.3,170.5h8l6.3,19.4h0.4v-19.4h4.9v24.6h-7.8l-6.5-19.4h-0.4v19.4h-4.9V170.5z"/>
<path fill="#fff" d="M169.2,170.5h15.2v4.5h-10.4v5.8h8.3v4.4h-8.3v5.4h10.4v4.5h-15.2V170.5z"/>
<path fill="#fff" d="M101.7,225.5c0,0-3.2,0.6-5.4,0.6c-5.8,0-7.1-3.7-7.1-10.2c0-6.7,1.5-10.3,7.1-10.3c2.4,0,5.4,0.6,5.4,0.6
	l-0.1,2.2c0,0-3.2-0.5-5-0.5c-4,0-4.8,2.6-4.8,7.9c0,5.2,0.7,7.8,4.9,7.8c1.6,0,4.9-0.5,4.9-0.5L101.7,225.5z"/>
<path fill="#fff" d="M117.3,216.8H108v8.9h-2.5v-19.9h2.5v8.7h9.3v-8.7h2.5v19.9h-2.5V216.8z"/>
<path fill="#fff" d="M128.5,205.9h5l5.2,19.9h-2.5l-1.4-4.8h-7.7l-1.3,4.8h-2.5L128.5,205.9z M127.6,218.6h6.7l-2.7-10.6h-1.1
	L127.6,218.6z"/>
<path fill="#fff" d="M142.2,205.9h4.3l5.3,16.5l5.3-16.5h4.2v19.9h-2.4v-17h-0.4L153,225h-2.7l-5.3-16.3h-0.4v17h-2.5V205.9z"/>
<path fill="#fff" d="M173.4,205.9c3.5,0,5.9,1.6,5.9,4.9c0,2.5-0.9,3.9-2.5,4.7c1.8,0.6,3,1.9,3,4.6c0,4-2.6,5.6-6.2,5.6h-7.3
	v-19.9H173.4z M168.9,208.1v6.5h4.5c2.2,0,3.3-1.4,3.3-3.5c0-2-1.3-3-3.5-3H168.9z M168.9,216.7v6.7h4.7c2.1,0,3.7-1.1,3.7-3.5
	c0-2.7-2.4-3.2-3.8-3.2H168.9z"/>
<path fill="#fff" d="M190.9,218.3h-4.4v7.4H184v-19.9h7.1c4.2,0,6.4,1.9,6.4,6.1c0,2.9-1.1,4.9-3.5,5.8l3.6,8h-2.7l-3.3-7.4
	L190.9,218.3z M191.1,208.2h-4.6v7.9h4.6c2.7,0,3.8-1.8,3.8-4.1C194.9,209.6,193.5,208.2,191.1,208.2z"/>
<path fill="#fff" d="M201.7,205.9h11.8v2.3h-9.4v6.4h7.7v2.2h-7.7v6.6h9.4v2.3h-11.8V205.9z"/>
<path fill="#fff" d="M224.5,225.7v-19.9h6.7c5.8,0,7.4,4,7.4,9.6c0,5.7-1.5,10.3-7.4,10.3H224.5z M231.2,208.2H227v15.3h4.3
	c3.9,0,4.8-4,4.8-8C236.1,211.4,235.2,208.2,231.2,208.2z"/>
<path fill="#fff" d="M242.8,205.9h11.8v2.3h-9.4v6.4h7.7v2.2h-7.7v6.6h9.4v2.3h-11.8V205.9z"/>
<path fill="#fff" d="M276.9,225.5c0,0-3.2,0.6-5.3,0.6c-5.8,0-7.1-3.7-7.1-10.2c0-6.7,1.5-10.3,7.1-10.3c2.4,0,5.3,0.6,5.3,0.6
	l-0.1,2.2c0,0-3.2-0.5-5-0.5c-4,0-4.8,2.6-4.8,7.9c0,5.2,0.7,7.8,4.9,7.8c1.6,0,4.9-0.5,4.9-0.5L276.9,225.5z"/>
<path fill="#fff" d="M279.7,215.9c0-6.7,2-10.3,7.7-10.3c5.7,0,7.7,3.6,7.7,10.3c0,6.9-2,10.1-7.7,10.1
	C281.7,226,279.7,222.7,279.7,215.9z M292.5,215.9c0-5.4-1.3-8.1-5.1-8.1c-3.9,0-5.1,2.7-5.1,8.1c0,5.4,1.2,7.8,5.1,7.8
	C291.3,223.7,292.5,221.5,292.5,215.9z"/>
<path fill="#fff" d="M299.3,205.9h4.3l5.3,16.5l5.3-16.5h4.2v19.9h-2.5v-17h-0.4l-5.3,16.3h-2.7l-5.3-16.3h-0.4v17h-2.5V205.9z"
	/>
<path fill="#fff" d="M323.5,205.9h4.2l5.3,16.5l5.3-16.5h4.2v19.9h-2.5v-17h-0.4l-5.3,16.3h-2.7l-5.3-16.3H326v17h-2.5V205.9z"/>
<path fill="#fff" d="M347.8,205.9h11.8v2.3h-9.4v6.4h7.7v2.2h-7.7v6.6h9.4v2.3h-11.8V205.9z"/>
<path fill="#fff" d="M370.7,218.3h-4.4v7.4h-2.5v-19.9h7.1c4.2,0,6.4,1.9,6.4,6.1c0,2.9-1.1,4.9-3.5,5.8l3.6,8h-2.7l-3.3-7.4
	L370.7,218.3z M370.9,208.2h-4.6v7.9h4.6c2.7,0,3.8-1.8,3.8-4.1C374.7,209.6,373.3,208.2,370.9,208.2z"/>
<path fill="#fff" d="M393,225.5c0,0-3.2,0.6-5.3,0.6c-5.8,0-7.1-3.7-7.1-10.2c0-6.7,1.5-10.3,7.1-10.3c2.4,0,5.3,0.6,5.3,0.6
	l-0.1,2.2c0,0-3.2-0.5-5-0.5c-4,0-4.8,2.6-4.8,7.9c0,5.2,0.7,7.8,4.9,7.8c1.6,0,4.9-0.5,4.9-0.5L393,225.5z"/>
<path fill="#fff" d="M396.8,205.9h11.8v2.3h-9.4v6.4h7.7v2.2h-7.7v6.6h9.4v2.3h-11.8V205.9z"/>
<path fill="#fff" d="M90.3,256.3v-19.9h6.7c5.8,0,7.4,4,7.4,9.6c0,5.7-1.5,10.3-7.4,10.3H90.3z M97.1,238.8h-4.3V254h4.3
	c3.9,0,4.8-3.9,4.8-8C101.9,242,101,238.8,97.1,238.8z"/>
<path fill="#fff" d="M108.6,236.4h11.8v2.3H111v6.4h7.7v2.3H111v6.6h9.4v2.3h-11.8V236.4z"/>
<path fill="#fff" d="M140.2,256.4c-0.7,0.1-1.4,0.2-2.2,0.2c-6,0-7.7-3.6-7.7-10.1c0-6.4,1.7-10.3,7.7-10.3c6,0,7.7,3.9,7.7,10.3
	c0,4.4-0.7,7.6-3.1,9l2.2,3.9l-2.2,1.1L140.2,256.4z M143.1,246.5c0-5.1-1-8.1-5.1-8.1c-4.2,0-5.1,2.9-5.1,8.1c0,5.1,1,7.8,5.1,7.8
	C142.2,254.3,143.1,251.8,143.1,246.5z"/>
<path fill="#fff" d="M156.4,254.2c3,0,4.5-1.2,4.5-4v-13.8h2.5v13.8c0,4.4-2.3,6.3-7,6.3c-4.6,0-6.8-1.9-6.8-6.3v-13.8h2.5v13.8
	C152.1,253,153.6,254.2,156.4,254.2z"/>
<path fill="#fff" d="M168.3,236.4h11.8v2.3h-9.4v6.4h7.7v2.3h-7.7v6.6h9.4v2.3h-11.8V236.4z M177.4,229.3l0.9,2.3l-6.5,2.4
	l-0.8-2L177.4,229.3z"/>
<path fill="#fff" d="M191.3,236.4c3.5,0,5.9,1.6,5.9,4.9c0,2.5-0.9,3.9-2.5,4.7c1.8,0.6,3,1.9,3,4.6c0,4-2.6,5.6-6.2,5.6h-7.3
	v-19.9H191.3z M186.8,238.7v6.5h4.5c2.2,0,3.3-1.4,3.3-3.4c0-2-1.3-3-3.5-3H186.8z M186.8,247.3v6.8h4.7c2.1,0,3.7-1.1,3.7-3.5
	c0-2.7-2.4-3.2-3.8-3.2H186.8z"/>
<path fill="#fff" d="M201.9,236.4h11.8v2.3h-9.4v6.4h7.7v2.3h-7.7v6.6h9.4v2.3h-11.8V236.4z"/>
<path fill="#fff" d="M229.4,256c0,0-3.2,0.6-5.3,0.6c-5.8,0-7.1-3.7-7.1-10.2c0-6.7,1.5-10.3,7.1-10.3c2.4,0,5.3,0.6,5.3,0.6
	l-0.1,2.2c0,0-3.2-0.5-5-0.5c-4,0-4.8,2.6-4.8,7.9c0,5.2,0.7,7.8,4.9,7.8c1.6,0,4.9-0.4,4.9-0.4L229.4,256z"/>
<path fill="#fff" d="M197.3,129.1c6.4-5.5,10.4-12.9,10.4-20.9c0-17-17.5-30.9-39-30.9c-21.5,0-39,13.9-39,30.9
	c0,17,17.5,30.9,39,30.9c5.6,0,11-1,15.8-2.7l21.2,12.8L197.3,129.1z M148.2,108.2c0-9,9.2-16.3,20.5-16.3
	c11.3,0,20.5,7.3,20.5,16.3c0,9-9.2,16.3-20.5,16.3C157.4,124.5,148.2,117.2,148.2,108.2z"/>
</svg>
