<?xml version="1.0" encoding="utf-8"?>
<!-- Generator: Adobe Illustrator 17.1.0, SVG Export Plug-In . SVG Version: 6.00 Build 0)  -->
<!DOCTYPE svg PUBLIC "-//W3C//DTD SVG 1.1//EN" "http://www.w3.org/Graphics/SVG/1.1/DTD/svg11.dtd">
<svg version="1.1" id="ArcBees_Logotype" xmlns="http://www.w3.org/2000/svg" xmlns:xlink="http://www.w3.org/1999/xlink" x="0px"
	 y="0px" viewBox="0 0 841.9 311.8" enable-background="new 0 0 841.9 311.8" xml:space="preserve">
<g id="Logo_x5F_Black" display="none">
	<g id="Typo_2_" display="inline">
		<path fill="#333333" d="M283.8,232.8l48.4-118.9h12.5l48.4,118.9h-15.7l-14.2-35.8h-49.7l-14.2,35.8H283.8z M338.4,132.3
			c-5.3,14.8-10.4,28.3-15.2,40.4l-4.4,11.2h39.4l-4.5-11.2c-4.9-12.3-9.8-25.8-14.9-40.4H338.4z"/>
		<path fill="#333333" d="M444.3,159.5h-1.1c-3.3,0-6.5,0.3-9.6,0.9s-6.1,1.5-8.8,2.7c-2.8,1.2-5.2,2.7-7.5,4.5
			c-2.2,1.8-4.1,3.9-5.6,6.3v58.8H398v-84.4h10.7l2.7,13.4h0.3c1.4-2.2,3-4.2,5-6.1c2-1.9,4.2-3.6,6.7-5c2.5-1.4,5.2-2.5,8.2-3.3
			c3-0.8,6.1-1.2,9.3-1.2c0.6,0,1.2,0,1.8,0c0.6,0,1.2,0.1,1.6,0.1V159.5z"/>
		<path fill="#333333" d="M483.5,146.1c4.1,0,8,0.4,11.7,1.3c3.7,0.9,6.9,2.1,9.6,3.6v11.5c-3.7-1.4-7.2-2.5-10.3-3.2
			c-3.1-0.7-6.3-1.1-9.6-1.1c-3.4,0-6.8,0.6-10.2,1.7c-3.4,1.1-6.4,3-9.1,5.6c-2.7,2.6-4.8,6-6.4,10.2c-1.6,4.2-2.4,9.5-2.4,15.8
			c0,4.6,0.6,8.8,1.8,12.6c1.2,3.9,3,7.2,5.4,10c2.4,2.8,5.4,5,9,6.6c3.6,1.6,7.8,2.4,12.5,2.4c3.4,0,6.9-0.4,10.4-1.1
			c3.5-0.7,6.9-1.8,10.2-3.2v11.5c-1,0.6-2.3,1.2-4,1.8c-1.6,0.6-3.4,1.1-5.4,1.6c-2,0.4-4,0.8-6.2,1.1c-2.2,0.3-4.4,0.4-6.6,0.4
			c-5.7,0-11.1-0.9-16.1-2.6c-5.1-1.7-9.5-4.4-13.3-7.9c-3.8-3.6-6.8-8.1-9-13.5c-2.2-5.5-3.3-11.9-3.3-19.4c0-5.6,0.6-10.6,1.7-15
			c1.2-4.4,2.7-8.4,4.8-11.7c2-3.4,4.4-6.2,7.1-8.6c2.7-2.4,5.6-4.3,8.6-5.8c3.1-1.5,6.2-2.6,9.5-3.3
			C477.3,146.4,480.4,146.1,483.5,146.1z"/>
		<path fill="#333333" d="M571.1,171.3c3.7,0.5,7,1.5,9.9,2.9c2.9,1.4,5.5,3.2,7.6,5.5c2.1,2.2,3.7,4.9,4.8,7.9
			c1.1,3.1,1.7,6.5,1.7,10.4c0,2.8-0.4,5.7-1.2,8.8c-0.8,3.1-2.2,6-4.1,8.9c-1.9,2.9-4.4,5.5-7.5,8c-3.1,2.4-6.9,4.4-11.5,6
			c-3.5,1.2-7.4,2-11.7,2.5c-4.3,0.5-9.4,0.7-15.4,0.7h-30.4V113.8h29.3c2.7,0,5.1,0,7.3,0.1c2.2,0.1,4.2,0.2,6.1,0.4
			c1.8,0.2,3.6,0.4,5.1,0.7c1.6,0.3,3.1,0.6,4.5,0.9c3.7,1,7,2.4,10.1,4.1c3,1.7,5.6,3.8,7.7,6.3c2.1,2.4,3.7,5.2,4.9,8.3
			c1.1,3.1,1.7,6.4,1.7,10c0,2.9-0.3,5.7-1,8.4c-0.7,2.7-1.8,5.1-3.3,7.4c-1.5,2.3-3.5,4.3-5.9,6c-2.4,1.8-5.3,3.3-8.8,4.4V171.3z
			 M549.9,165.3c2.8,0,5.3-0.1,7.4-0.4c2.1-0.3,3.9-0.7,5.6-1.2c4.4-1.5,7.7-3.8,9.7-6.9c2-3.1,3.1-6.8,3.1-11.1
			c0-4.4-1.1-8-3.2-10.8c-2.1-2.8-5.5-4.9-10-6.2c-2.3-0.7-4.9-1.1-7.8-1.4s-6.5-0.4-10.5-0.4h-16.3v38.4H549.9z M527.8,178.4v41.3
			h17.5c4.1,0,8-0.2,11.6-0.6c3.6-0.4,6.6-1,9.1-1.8c2.7-0.9,5-2,6.9-3.4c1.9-1.4,3.4-2.9,4.6-4.6c1.2-1.7,2-3.5,2.5-5.4
			c0.5-1.9,0.8-3.8,0.8-5.8c0-2.3-0.3-4.4-0.8-6.4c-0.5-2-1.4-3.8-2.6-5.3c-1.2-1.6-2.8-2.9-4.8-4.1c-2-1.2-4.5-2.1-7.4-2.8
			c-1.8-0.4-3.8-0.7-6.1-0.9c-2.3-0.2-5.1-0.3-8.5-0.3H527.8z"/>
		<path fill="#333333" d="M645.4,223c4.6,0,8.7-0.4,12.5-1.1c3.8-0.7,7.5-1.8,11.2-3.2v11.5c-3,1.5-6.8,2.7-11.2,3.5
			c-4.4,0.9-9.2,1.3-14.3,1.3c-6,0-11.7-0.8-17-2.3c-5.3-1.5-9.9-4-13.8-7.5c-3.9-3.4-6.9-7.9-9.1-13.5c-2.2-5.5-3.3-12.2-3.3-20
			c0-7.7,1.1-14.4,3.2-20c2.1-5.7,5-10.4,8.5-14.2c3.5-3.8,7.6-6.6,12.2-8.5c4.6-1.9,9.4-2.8,14.5-2.8c4.7,0,9.1,0.8,13.3,2.4
			c4.1,1.6,7.7,4,10.7,7.4c3,3.4,5.4,7.7,7.1,13.1c1.7,5.3,2.6,11.7,2.6,19.2c0,0.7,0,1.3,0,1.8c0,0.5,0,1.6-0.1,3.4h-58.3
			c0,5.4,0.8,10,2.4,13.7c1.6,3.8,3.9,6.8,6.7,9.2c2.8,2.3,6.1,4,9.9,5.1C636.9,222.5,641,223,645.4,223z M638.2,157.9
			c-3.2,0-6.1,0.6-8.9,1.9c-2.7,1.2-5.1,2.9-7.2,5.1c-2,2.1-3.7,4.6-4.9,7.5c-1.3,2.9-2,5.9-2.3,9.2H658c0-3.3-0.4-6.4-1.3-9.3
			c-0.9-2.9-2.1-5.4-3.8-7.5c-1.7-2.1-3.8-3.8-6.2-5C644.2,158.5,641.4,157.9,638.2,157.9z"/>
		<path fill="#333333" d="M723.7,223c4.6,0,8.7-0.4,12.5-1.1c3.8-0.7,7.5-1.8,11.2-3.2v11.5c-3,1.5-6.8,2.7-11.2,3.5
			c-4.4,0.9-9.2,1.3-14.3,1.3c-6,0-11.7-0.8-17-2.3c-5.3-1.5-9.9-4-13.8-7.5c-3.9-3.4-6.9-7.9-9.1-13.5c-2.2-5.5-3.3-12.2-3.3-20
			c0-7.7,1.1-14.4,3.2-20c2.1-5.7,5-10.4,8.5-14.2c3.5-3.8,7.6-6.6,12.2-8.5c4.6-1.9,9.4-2.8,14.5-2.8c4.7,0,9.1,0.8,13.3,2.4
			c4.1,1.6,7.7,4,10.7,7.4c3,3.4,5.4,7.7,7.1,13.1c1.7,5.3,2.6,11.7,2.6,19.2c0,0.7,0,1.3,0,1.8c0,0.5,0,1.6-0.1,3.4h-58.3
			c0,5.4,0.8,10,2.4,13.7c1.6,3.8,3.9,6.8,6.7,9.2c2.8,2.3,6.1,4,9.9,5.1C715.3,222.5,719.3,223,723.7,223z M716.5,157.9
			c-3.2,0-6.1,0.6-8.9,1.9c-2.7,1.2-5.1,2.9-7.2,5.1c-2,2.1-3.7,4.6-5,7.5c-1.3,2.9-2,5.9-2.3,9.2h43.2c0-3.3-0.4-6.4-1.3-9.3
			c-0.9-2.9-2.1-5.4-3.8-7.5c-1.7-2.1-3.8-3.8-6.2-5C722.6,158.5,719.7,157.9,716.5,157.9z"/>
		<path fill="#333333" d="M769.5,170.8c0,2.3,0.5,4.2,1.5,5.7c1,1.5,2.3,2.7,4,3.6c1.7,0.9,3.6,1.7,5.7,2.3c2.2,0.6,4.4,1.1,6.7,1.6
			c3.2,0.7,6.2,1.5,9,2.4c2.8,0.9,5.5,2.1,7.9,3.9c2.4,1.7,4.3,4,5.8,7c1.5,2.9,2.2,6.7,2.2,11.4c0,4.3-0.8,8-2.5,11.3
			c-1.7,3.3-4,6-7,8.3c-3,2.2-6.6,3.9-10.8,5.1c-4.2,1.2-8.8,1.7-13.9,1.7c-3.1,0-5.9-0.2-8.4-0.5c-2.5-0.3-4.7-0.7-6.7-1.2
			c-1.9-0.5-3.6-1-4.9-1.6c-1.4-0.5-2.5-1-3.4-1.5v-11.6c3.5,1.4,7,2.5,10.4,3.4c3.4,0.8,7.2,1.2,11.3,1.2c3.3,0,6.2-0.3,8.8-0.9
			c2.6-0.6,4.9-1.5,6.8-2.6c1.9-1.2,3.3-2.6,4.4-4.4c1-1.7,1.5-3.8,1.5-6.1c0-2.4-0.5-4.3-1.4-5.9c-0.9-1.5-2.2-2.8-3.8-3.8
			c-1.6-1-3.4-1.8-5.5-2.5c-2.1-0.7-4.2-1.2-6.5-1.8c-3-0.7-6-1.4-9-2.3c-3.1-0.9-5.8-2.1-8.3-3.7c-2.5-1.6-4.5-3.8-6.1-6.5
			c-1.5-2.8-2.3-6.3-2.3-10.6c0-4.4,0.8-8.3,2.4-11.6c1.6-3.3,3.8-6,6.5-8.1c2.7-2.1,5.9-3.7,9.5-4.8c3.6-1.1,7.4-1.6,11.5-1.6
			c4.7,0,9,0.4,13,1.3c4,0.9,7.6,2,10.9,3.4v11.7c-3.5-1.4-7-2.5-10.5-3.3c-3.6-0.9-7.2-1.3-11-1.4c-3.2,0-5.9,0.3-8.2,1
			c-2.3,0.7-4.1,1.6-5.6,2.7c-1.4,1.2-2.5,2.5-3.2,4.1C769.8,167.2,769.5,168.9,769.5,170.8z"/>
	</g>
	<polygon display="inline" fill="#333333" points="240.3,194.6 263.8,231.8 207.7,231.8 	"/>
	<path display="inline" fill="#333333" d="M254.1,154.8c-1.5,56.9-52.9,101.8-115,100.2c-1.7,0-3.4-0.1-5.1-0.2
		c24.3-6.1,50.6-20.8,73.1-42.6c15.7-15.2,27.6-31.8,35.1-48.2c-4-7.4-9.3-14.6-15.6-21.5c-7.1,19-20.2,38.9-38.7,56.7
		c-29.2,28.2-59.8,44.4-89,47.9c-7.6-2.9-14.8-6.6-21.5-10.9c28-3.4,58-21.1,85.5-47.8c21.2-20.6,35.4-43.8,41.5-65.4
		c-8.9-6.4-18.8-12.3-29.6-17.5c-5.9,17.7-16.4,36.2-31.3,53.4c-27.4,31.5-58,51.5-87.3,59.4c-4.3-4.7-8.2-9.7-11.6-15.1
		c25.4-7.1,50.9-27.6,73-53.1c15.3-17.6,25.9-36.6,31.7-54.7c-12.1-3.9-24.2-6.6-35.9-8.1c-4.1,11.2-9.8,22.5-17.1,33.6
		c-17.3,26.4-40.9,42.8-64,53.8h0c-1.8-7.1-2.8-14.5-2.8-22.1v0c15.3-8.6,28.6-20,39.9-37.3C75.9,105.5,81,95.7,85,85.9
		c-12.3,0.4-23.8,2.2-34.2,5.3c20.9-26.5,55.3-43.4,93.8-42.4C206.5,50.4,255.6,97.8,254.1,154.8z"/>
</g>
<g id="Logo_x5F_White" display="none">
	<g id="Typo" display="inline">
		<path fill="#FFFFFF" d="M283.8,232.8l48.4-118.9h12.5l48.4,118.9h-15.7l-14.2-35.8h-49.7l-14.2,35.8H283.8z M338.4,132.3
			c-5.3,14.8-10.4,28.3-15.2,40.4l-4.4,11.2h39.4l-4.5-11.2c-4.9-12.3-9.8-25.8-14.9-40.4H338.4z"/>
		<path fill="#FFFFFF" d="M444.3,159.5h-1.1c-3.3,0-6.5,0.3-9.6,0.9s-6.1,1.5-8.8,2.7c-2.8,1.2-5.2,2.7-7.5,4.5
			c-2.2,1.8-4.1,3.9-5.6,6.3v58.8H398v-84.4h10.7l2.7,13.4h0.3c1.4-2.2,3-4.2,5-6.1c2-1.9,4.2-3.6,6.7-5c2.5-1.4,5.2-2.5,8.2-3.3
			c3-0.8,6.1-1.2,9.3-1.2c0.6,0,1.2,0,1.8,0c0.6,0,1.2,0.1,1.6,0.1V159.5z"/>
		<path fill="#FFFFFF" d="M483.5,146.1c4.1,0,8,0.4,11.7,1.3c3.7,0.9,6.9,2.1,9.6,3.6v11.5c-3.7-1.4-7.2-2.5-10.3-3.2
			c-3.1-0.7-6.3-1.1-9.6-1.1c-3.4,0-6.8,0.6-10.2,1.7c-3.4,1.1-6.4,3-9.1,5.6c-2.7,2.6-4.8,6-6.4,10.2c-1.6,4.2-2.4,9.5-2.4,15.8
			c0,4.6,0.6,8.8,1.8,12.6c1.2,3.9,3,7.2,5.4,10c2.4,2.8,5.4,5,9,6.6c3.6,1.6,7.8,2.4,12.5,2.4c3.4,0,6.9-0.4,10.4-1.1
			c3.5-0.7,6.9-1.8,10.2-3.2v11.5c-1,0.6-2.3,1.2-4,1.8c-1.6,0.6-3.4,1.1-5.4,1.6c-2,0.4-4,0.8-6.2,1.1c-2.2,0.3-4.4,0.4-6.6,0.4
			c-5.7,0-11.1-0.9-16.1-2.6c-5.1-1.7-9.5-4.4-13.3-7.9c-3.8-3.6-6.8-8.1-9-13.5c-2.2-5.5-3.3-11.9-3.3-19.4c0-5.6,0.6-10.6,1.7-15
			c1.2-4.4,2.7-8.4,4.8-11.7c2-3.4,4.4-6.2,7.1-8.6c2.7-2.4,5.6-4.3,8.6-5.8c3.1-1.5,6.2-2.6,9.5-3.3
			C477.3,146.4,480.4,146.1,483.5,146.1z"/>
		<path fill="#FFFFFF" d="M571.1,171.3c3.7,0.5,7,1.5,9.9,2.9c2.9,1.4,5.5,3.2,7.6,5.5c2.1,2.2,3.7,4.9,4.8,7.9
			c1.1,3.1,1.7,6.5,1.7,10.4c0,2.8-0.4,5.7-1.2,8.8c-0.8,3.1-2.2,6-4.1,8.9c-1.9,2.9-4.4,5.5-7.5,8c-3.1,2.4-6.9,4.4-11.5,6
			c-3.5,1.2-7.4,2-11.7,2.5c-4.3,0.5-9.4,0.7-15.4,0.7h-30.4V113.8h29.3c2.7,0,5.1,0,7.3,0.1c2.2,0.1,4.2,0.2,6.1,0.4
			c1.8,0.2,3.6,0.4,5.1,0.7c1.6,0.3,3.1,0.6,4.5,0.9c3.7,1,7,2.4,10.1,4.1c3,1.7,5.6,3.8,7.7,6.3c2.1,2.4,3.7,5.2,4.9,8.3
			c1.1,3.1,1.7,6.4,1.7,10c0,2.9-0.3,5.7-1,8.4c-0.7,2.7-1.8,5.1-3.3,7.4c-1.5,2.3-3.5,4.3-5.9,6c-2.4,1.8-5.3,3.3-8.8,4.4V171.3z
			 M549.9,165.3c2.8,0,5.3-0.1,7.4-0.4c2.1-0.3,3.9-0.7,5.6-1.2c4.4-1.5,7.7-3.8,9.7-6.9c2-3.1,3.1-6.8,3.1-11.1
			c0-4.4-1.1-8-3.2-10.8c-2.1-2.8-5.5-4.9-10-6.2c-2.3-0.7-4.9-1.1-7.8-1.4s-6.5-0.4-10.5-0.4h-16.3v38.4H549.9z M527.8,178.4v41.3
			h17.5c4.1,0,8-0.2,11.6-0.6c3.6-0.4,6.6-1,9.1-1.8c2.7-0.9,5-2,6.9-3.4c1.9-1.4,3.4-2.9,4.6-4.6c1.2-1.7,2-3.5,2.5-5.4
			c0.5-1.9,0.8-3.8,0.8-5.8c0-2.3-0.3-4.4-0.8-6.4c-0.5-2-1.4-3.8-2.6-5.3c-1.2-1.6-2.8-2.9-4.8-4.1c-2-1.2-4.5-2.1-7.4-2.8
			c-1.8-0.4-3.8-0.7-6.1-0.9c-2.3-0.2-5.1-0.3-8.5-0.3H527.8z"/>
		<path fill="#FFFFFF" d="M645.4,223c4.6,0,8.7-0.4,12.5-1.1c3.8-0.7,7.5-1.8,11.2-3.2v11.5c-3,1.5-6.8,2.7-11.2,3.5
			c-4.4,0.9-9.2,1.3-14.3,1.3c-6,0-11.7-0.8-17-2.3c-5.3-1.5-9.9-4-13.8-7.5c-3.9-3.4-6.9-7.9-9.1-13.5c-2.2-5.5-3.3-12.2-3.3-20
			c0-7.7,1.1-14.4,3.2-20c2.1-5.7,5-10.4,8.5-14.2c3.5-3.8,7.6-6.6,12.2-8.5c4.6-1.9,9.4-2.8,14.5-2.8c4.7,0,9.1,0.8,13.3,2.4
			c4.1,1.6,7.7,4,10.7,7.4c3,3.4,5.4,7.7,7.1,13.1c1.7,5.3,2.6,11.7,2.6,19.2c0,0.7,0,1.3,0,1.8c0,0.5,0,1.6-0.1,3.4h-58.3
			c0,5.4,0.8,10,2.4,13.7c1.6,3.8,3.9,6.8,6.7,9.2c2.8,2.3,6.1,4,9.9,5.1C636.9,222.5,641,223,645.4,223z M638.2,157.9
			c-3.2,0-6.1,0.6-8.9,1.9c-2.7,1.2-5.1,2.9-7.2,5.1c-2,2.1-3.7,4.6-4.9,7.5c-1.3,2.9-2,5.9-2.3,9.2H658c0-3.3-0.4-6.4-1.3-9.3
			c-0.9-2.9-2.1-5.4-3.8-7.5c-1.7-2.1-3.8-3.8-6.2-5C644.2,158.5,641.4,157.9,638.2,157.9z"/>
		<path fill="#FFFFFF" d="M723.7,223c4.6,0,8.7-0.4,12.5-1.1c3.8-0.7,7.5-1.8,11.2-3.2v11.5c-3,1.5-6.8,2.7-11.2,3.5
			c-4.4,0.9-9.2,1.3-14.3,1.3c-6,0-11.7-0.8-17-2.3c-5.3-1.5-9.9-4-13.8-7.5c-3.9-3.4-6.9-7.9-9.1-13.5c-2.2-5.5-3.3-12.2-3.3-20
			c0-7.7,1.1-14.4,3.2-20c2.1-5.7,5-10.4,8.5-14.2c3.5-3.8,7.6-6.6,12.2-8.5c4.6-1.9,9.4-2.8,14.5-2.8c4.7,0,9.1,0.8,13.3,2.4
			c4.1,1.6,7.7,4,10.7,7.4c3,3.4,5.4,7.7,7.1,13.1c1.7,5.3,2.6,11.7,2.6,19.2c0,0.7,0,1.3,0,1.8c0,0.5,0,1.6-0.1,3.4h-58.3
			c0,5.4,0.8,10,2.4,13.7c1.6,3.8,3.9,6.8,6.7,9.2c2.8,2.3,6.1,4,9.9,5.1C715.3,222.5,719.3,223,723.7,223z M716.5,157.9
			c-3.2,0-6.1,0.6-8.9,1.9c-2.7,1.2-5.1,2.9-7.2,5.1c-2,2.1-3.7,4.6-5,7.5c-1.3,2.9-2,5.9-2.3,9.2h43.2c0-3.3-0.4-6.4-1.3-9.3
			c-0.9-2.9-2.1-5.4-3.8-7.5c-1.7-2.1-3.8-3.8-6.2-5C722.6,158.5,719.7,157.9,716.5,157.9z"/>
		<path fill="#FFFFFF" d="M769.5,170.8c0,2.3,0.5,4.2,1.5,5.7c1,1.5,2.3,2.7,4,3.6c1.7,0.9,3.6,1.7,5.7,2.3c2.2,0.6,4.4,1.1,6.7,1.6
			c3.2,0.7,6.2,1.5,9,2.4c2.8,0.9,5.5,2.1,7.9,3.9c2.4,1.7,4.3,4,5.8,7c1.5,2.9,2.2,6.7,2.2,11.4c0,4.3-0.8,8-2.5,11.3
			c-1.7,3.3-4,6-7,8.3c-3,2.2-6.6,3.9-10.8,5.1c-4.2,1.2-8.8,1.7-13.9,1.7c-3.1,0-5.9-0.2-8.4-0.5c-2.5-0.3-4.7-0.7-6.7-1.2
			c-1.9-0.5-3.6-1-4.9-1.6c-1.4-0.5-2.5-1-3.4-1.5v-11.6c3.5,1.4,7,2.5,10.4,3.4c3.4,0.8,7.2,1.2,11.3,1.2c3.3,0,6.2-0.3,8.8-0.9
			c2.6-0.6,4.9-1.5,6.8-2.6c1.9-1.2,3.3-2.6,4.4-4.4c1-1.7,1.5-3.8,1.5-6.1c0-2.4-0.5-4.3-1.4-5.9c-0.9-1.5-2.2-2.8-3.8-3.8
			c-1.6-1-3.4-1.8-5.5-2.5c-2.1-0.7-4.2-1.2-6.5-1.8c-3-0.7-6-1.4-9-2.3c-3.1-0.9-5.8-2.1-8.3-3.7c-2.5-1.6-4.5-3.8-6.1-6.5
			c-1.5-2.8-2.3-6.3-2.3-10.6c0-4.4,0.8-8.3,2.4-11.6c1.6-3.3,3.8-6,6.5-8.1c2.7-2.1,5.9-3.7,9.5-4.8c3.6-1.1,7.4-1.6,11.5-1.6
			c4.7,0,9,0.4,13,1.3c4,0.9,7.6,2,10.9,3.4v11.7c-3.5-1.4-7-2.5-10.5-3.3c-3.6-0.9-7.2-1.3-11-1.4c-3.2,0-5.9,0.3-8.2,1
			c-2.3,0.7-4.1,1.6-5.6,2.7c-1.4,1.2-2.5,2.5-3.2,4.1C769.8,167.2,769.5,168.9,769.5,170.8z"/>
	</g>
	<polygon display="inline" fill="#FFFFFF" points="240.3,194.6 263.8,231.8 207.7,231.8 	"/>
	<path display="inline" fill="#FFFFFF" d="M254.1,154.8c-1.5,56.9-52.9,101.8-115,100.2c-1.7,0-3.4-0.1-5.1-0.2
		c24.3-6.1,50.6-20.8,73.1-42.6c15.7-15.2,27.6-31.8,35.1-48.2c-4-7.4-9.3-14.6-15.6-21.5c-7.1,19-20.2,38.9-38.7,56.7
		c-29.2,28.2-59.8,44.4-89,47.9c-7.6-2.9-14.8-6.6-21.5-10.9c28-3.4,58-21.1,85.5-47.8c21.2-20.6,35.4-43.8,41.5-65.4
		c-8.9-6.4-18.8-12.3-29.6-17.5c-5.9,17.7-16.4,36.2-31.3,53.4c-27.4,31.5-58,51.5-87.3,59.4c-4.3-4.7-8.2-9.7-11.6-15.1
		c25.4-7.1,50.9-27.6,73-53.1c15.3-17.6,25.9-36.6,31.7-54.7c-12.1-3.9-24.2-6.6-35.9-8.1c-4.1,11.2-9.8,22.5-17.1,33.6
		c-17.3,26.4-40.9,42.8-64,53.8h0c-1.8-7.1-2.8-14.5-2.8-22.1v0c15.3-8.6,28.6-20,39.9-37.3C75.9,105.5,81,95.7,85,85.9
		c-12.3,0.4-23.8,2.2-34.2,5.3c20.9-26.5,55.3-43.4,93.8-42.4C206.5,50.4,255.6,97.8,254.1,154.8z"/>
</g>
<g id="Logo_x5F_NORM">
	<g id="Typo_1_">
		<path fill="#333333" d="M275.4,237.7l51.4-126.2h13.3l51.4,126.2h-16.7l-15.1-38H307l-15.1,38H275.4z M333.3,131.1
			c-5.6,15.7-11,30-16.1,42.8l-4.7,11.9h41.8l-4.8-11.9c-5.2-13.1-10.5-27.3-15.8-42.8H333.3z"/>
		<path fill="#333333" d="M445.7,160h-1.1c-3.5,0-6.9,0.3-10.2,0.9c-3.3,0.6-6.5,1.6-9.4,2.9c-2.9,1.3-5.6,2.9-7.9,4.8
			c-2.4,1.9-4.3,4.1-5.9,6.7v62.4h-14.6v-89.6h11.3l2.8,14.2h0.3c1.4-2.3,3.2-4.5,5.3-6.5c2.1-2,4.5-3.8,7.1-5.3
			c2.6-1.5,5.5-2.7,8.7-3.5c3.1-0.8,6.4-1.3,9.9-1.3c0.6,0,1.3,0,1.9,0c0.7,0,1.2,0.1,1.7,0.1V160z"/>
		<path fill="#333333" d="M487.3,145.7c4.3,0,8.5,0.5,12.5,1.4c4,0.9,7.4,2.2,10.2,3.8v12.2c-4-1.5-7.6-2.6-10.9-3.4
			c-3.3-0.8-6.7-1.1-10.2-1.1c-3.6,0-7.3,0.6-10.8,1.8c-3.6,1.2-6.8,3.2-9.6,5.9c-2.8,2.7-5.1,6.4-6.8,10.8
			c-1.7,4.5-2.6,10.1-2.6,16.7c0,4.8,0.6,9.3,1.9,13.4c1.3,4.1,3.2,7.6,5.8,10.6c2.5,3,5.7,5.3,9.6,7c3.8,1.7,8.3,2.5,13.3,2.5
			c3.6,0,7.3-0.4,11-1.2c3.7-0.8,7.3-1.9,10.8-3.3V235c-1.1,0.6-2.5,1.3-4.2,1.9c-1.7,0.6-3.6,1.2-5.7,1.7c-2.1,0.5-4.3,0.8-6.6,1.1
			c-2.3,0.3-4.7,0.4-7,0.4c-6,0-11.7-0.9-17.1-2.7c-5.4-1.8-10.1-4.6-14.1-8.4c-4-3.8-7.2-8.6-9.5-14.3c-2.3-5.8-3.5-12.6-3.5-20.6
			c0-5.9,0.6-11.2,1.8-15.9c1.2-4.7,2.9-8.9,5-12.5c2.1-3.6,4.6-6.6,7.5-9.1c2.9-2.5,5.9-4.6,9.1-6.2c3.2-1.6,6.6-2.8,10-3.5
			C480.7,146.1,484.1,145.7,487.3,145.7z"/>
		<path fill="#333333" d="M580.3,172.4c3.9,0.6,7.4,1.6,10.5,3.1c3.1,1.5,5.8,3.4,8,5.8c2.2,2.4,3.9,5.2,5.1,8.4
			c1.2,3.2,1.8,6.9,1.8,11.1c0,3-0.4,6.1-1.3,9.3c-0.9,3.2-2.3,6.4-4.3,9.4c-2,3.1-4.7,5.9-7.9,8.4c-3.3,2.6-7.3,4.7-12.2,6.3
			c-3.7,1.3-7.9,2.1-12.4,2.6c-4.5,0.5-10,0.8-16.3,0.8H519V111.5h31.1c2.9,0,5.5,0,7.8,0.1c2.3,0.1,4.5,0.2,6.4,0.4
			c2,0.2,3.8,0.4,5.5,0.7c1.7,0.3,3.3,0.6,4.8,1c3.9,1.1,7.5,2.5,10.7,4.4c3.2,1.9,5.9,4.1,8.2,6.7c2.2,2.6,4,5.5,5.2,8.8
			c1.2,3.3,1.8,6.8,1.8,10.7c0,3.1-0.4,6-1.1,8.9c-0.7,2.8-1.9,5.4-3.5,7.8c-1.6,2.4-3.7,4.5-6.2,6.4c-2.5,1.9-5.6,3.5-9.3,4.7
			V172.4z M557.8,166.1c3,0,5.6-0.1,7.8-0.4c2.2-0.3,4.2-0.7,5.9-1.3c4.7-1.6,8.2-4,10.3-7.4c2.2-3.3,3.3-7.3,3.3-11.8
			c0-4.7-1.1-8.5-3.4-11.4c-2.3-3-5.8-5.2-10.7-6.6c-2.4-0.7-5.2-1.2-8.3-1.5c-3.1-0.3-6.9-0.4-11.1-0.4h-17.3v40.8H557.8z
			 M534.4,180v43.9H553c4.4,0,8.5-0.2,12.3-0.6c3.8-0.4,7-1.1,9.6-1.9c2.9-0.9,5.3-2.2,7.4-3.6c2-1.5,3.6-3.1,4.9-4.9
			c1.2-1.8,2.1-3.7,2.6-5.7c0.5-2,0.8-4.1,0.8-6.1c0-2.4-0.3-4.6-0.8-6.7c-0.6-2.1-1.5-4-2.8-5.7c-1.3-1.7-3-3.1-5.1-4.4
			c-2.1-1.3-4.7-2.2-7.9-2.9c-1.9-0.4-4-0.8-6.5-0.9c-2.4-0.2-5.4-0.3-9-0.3H534.4z"/>
		<path fill="#333333" d="M659.2,227.3c4.8,0,9.3-0.4,13.3-1.2c4-0.8,8-1.9,11.9-3.3V235c-3.2,1.6-7.2,2.8-11.9,3.7
			c-4.7,0.9-9.8,1.4-15.2,1.4c-6.4,0-12.4-0.8-18.1-2.5c-5.6-1.6-10.5-4.3-14.6-7.9c-4.1-3.6-7.3-8.4-9.7-14.3
			c-2.3-5.9-3.5-13-3.5-21.3c0-8.2,1.1-15.3,3.4-21.3c2.3-6,5.3-11,9-15c3.8-4,8.1-7,13-9.1c4.9-2,10-3,15.3-3c5,0,9.7,0.8,14.1,2.5
			c4.4,1.7,8.1,4.3,11.3,7.9c3.2,3.6,5.7,8.2,7.6,13.9c1.9,5.7,2.8,12.5,2.8,20.4c0,0.8,0,1.4,0,1.9c0,0.5,0,1.7-0.1,3.6H626
			c0,5.7,0.9,10.6,2.6,14.6c1.7,4,4.1,7.2,7.1,9.7c3,2.5,6.5,4.3,10.5,5.4C650.2,226.8,654.5,227.3,659.2,227.3z M651.5,158.3
			c-3.4,0-6.5,0.7-9.4,2c-2.9,1.3-5.4,3.1-7.6,5.4c-2.2,2.3-3.9,4.9-5.3,8c-1.3,3.1-2.2,6.3-2.5,9.8h45.8c0-3.5-0.5-6.8-1.4-9.9
			c-0.9-3-2.3-5.7-4.1-8c-1.8-2.3-4-4-6.6-5.3C657.9,158.9,654.9,158.3,651.5,158.3z"/>
		<path fill="#333333" d="M742.3,227.3c4.8,0,9.3-0.4,13.3-1.2c4-0.8,8-1.9,11.9-3.3V235c-3.2,1.6-7.2,2.8-11.9,3.7
			c-4.7,0.9-9.8,1.4-15.2,1.4c-6.4,0-12.4-0.8-18.1-2.5c-5.6-1.6-10.5-4.3-14.6-7.9c-4.1-3.6-7.3-8.4-9.7-14.3
			c-2.3-5.9-3.5-13-3.5-21.3c0-8.2,1.1-15.3,3.4-21.3c2.3-6,5.3-11,9-15c3.8-4,8.1-7,13-9.1c4.9-2,10-3,15.3-3c5,0,9.7,0.8,14.1,2.5
			c4.4,1.7,8.1,4.3,11.3,7.9c3.2,3.6,5.7,8.2,7.6,13.9c1.9,5.7,2.8,12.5,2.8,20.4c0,0.8,0,1.4,0,1.9c0,0.5,0,1.7-0.1,3.6h-61.9
			c0,5.7,0.9,10.6,2.6,14.6c1.7,4,4.1,7.2,7.1,9.7c3,2.5,6.5,4.3,10.5,5.4C733.3,226.8,737.6,227.3,742.3,227.3z M734.6,158.3
			c-3.4,0-6.5,0.7-9.4,2c-2.9,1.3-5.4,3.1-7.6,5.4c-2.2,2.3-3.9,4.9-5.3,8c-1.3,3.1-2.2,6.3-2.5,9.8h45.8c0-3.5-0.5-6.8-1.4-9.9
			c-0.9-3-2.3-5.7-4.1-8c-1.8-2.3-4-4-6.6-5.3C741,158.9,738,158.3,734.6,158.3z"/>
		<path fill="#333333" d="M790.9,172c0,2.5,0.5,4.5,1.6,6c1,1.6,2.4,2.8,4.2,3.8c1.8,1,3.8,1.8,6.1,2.4c2.3,0.6,4.7,1.2,7.1,1.7
			c3.4,0.8,6.6,1.6,9.6,2.5c3,0.9,5.8,2.3,8.3,4.1c2.6,1.8,4.6,4.3,6.2,7.4c1.6,3.1,2.4,7.2,2.4,12.1c0,4.5-0.9,8.5-2.6,12
			c-1.8,3.5-4.2,6.4-7.5,8.8c-3.2,2.4-7,4.2-11.5,5.4c-4.5,1.2-9.4,1.8-14.7,1.8c-3.3,0-6.2-0.2-8.9-0.5c-2.7-0.3-5-0.8-7.1-1.3
			c-2-0.5-3.8-1.1-5.2-1.7c-1.4-0.6-2.6-1.1-3.6-1.6v-12.3c3.7,1.5,7.4,2.7,11,3.6c3.6,0.9,7.7,1.3,12,1.3c3.5,0,6.6-0.3,9.4-0.9
			c2.8-0.6,5.2-1.6,7.2-2.8c2-1.2,3.6-2.8,4.6-4.6c1.1-1.9,1.6-4,1.6-6.5c0-2.5-0.5-4.6-1.5-6.2c-1-1.6-2.3-3-4-4.1
			c-1.7-1.1-3.6-1.9-5.8-2.6c-2.2-0.7-4.5-1.3-6.9-1.9c-3.1-0.7-6.3-1.5-9.6-2.5c-3.2-0.9-6.2-2.3-8.8-4c-2.7-1.7-4.8-4-6.4-6.9
			c-1.6-2.9-2.5-6.7-2.5-11.3c0-4.7,0.8-8.8,2.5-12.3c1.7-3.5,4-6.3,6.9-8.6c2.9-2.3,6.3-4,10.1-5.1c3.8-1.1,7.9-1.7,12.2-1.7
			c5,0,9.6,0.5,13.8,1.4c4.2,0.9,8.1,2.1,11.6,3.6v12.5c-3.7-1.4-7.4-2.6-11.2-3.5c-3.8-0.9-7.7-1.4-11.6-1.5c-3.4,0-6.3,0.3-8.7,1
			c-2.4,0.7-4.4,1.7-5.9,2.9c-1.5,1.2-2.7,2.7-3.4,4.3C791.2,168.1,790.9,169.9,790.9,172z"/>
	</g>
	<path fill="#333333" d="M244.3,155.3c-1.6,60.4-56.2,108-122,106.3C56.4,259.9,4.4,209.5,5.9,149.1C7.5,88.6,62.1,41,128,42.7
		C193.8,44.5,245.8,94.8,244.3,155.3z"/>
	<polygon fill="#333333" points="229.6,197.5 254.5,237 195,237 	"/>
	<g>
		<path fill="#CC9933" d="M99.5,150.3c16.2-18.7,27.5-38.8,33.7-58c-12.8-4.1-25.7-7-38.1-8.6c-4.4,11.9-10.4,23.9-18.2,35.6
			c-18.4,28-43.4,45.4-67.9,57.1c2.2,10.8,6.6,21.1,13,30.3C49,199.1,76,177.4,99.5,150.3z"/>
		<path fill="#CC9933" d="M147.5,190.9c22.6-21.8,37.6-46.5,44.1-69.4c-9.4-6.8-19.9-13.1-31.4-18.5c-6.2,18.8-17.4,38.4-33.2,56.7
			c-29,33.5-61.5,54.6-92.7,63c6.8,8.6,19.1,16.8,22.5,18.9C86.5,238,118.3,219.2,147.5,190.9z"/>
		<path fill="#CC9933" d="M48.3,113.3c6.7-10.3,12.2-20.7,16.4-31.1c-13,0.4-25.3,2.3-36.3,5.6C14.8,105,6.5,126.1,5.9,149.1
			c-0.1,3.2,0.1,0.8,0,3.8C22.2,143.8,36.2,131.7,48.3,113.3z"/>
		<path fill="#CC9933" d="M194.4,216.2c16.7-16.1,29.2-33.8,37.3-51.2c-4.2-7.8-9.8-15.5-16.6-22.8c-7.6,20.2-21.5,41.3-41,60.2
			c-31,30-63.6,47.2-94.7,50.9c13.1,5.8,22.2,7.1,37.5,8.1C142.7,254.8,170.5,239.3,194.4,216.2z"/>
	</g>
</g>
</svg>
