<?xml version="1.0" encoding="utf-8"?>
<!-- Generator: Adobe Illustrator 17.1.0, SVG Export Plug-In . SVG Version: 6.00 Build 0)  -->
<!DOCTYPE svg PUBLIC "-//W3C//DTD SVG 1.1//EN" "http://www.w3.org/Graphics/SVG/1.1/DTD/svg11.dtd">
<svg version="1.1" id="Layer_1" xmlns="http://www.w3.org/2000/svg" xmlns:xlink="http://www.w3.org/1999/xlink" x="0px" y="0px"
	 viewBox="0 0 107 50" enable-background="new 0 0 107 50" xml:space="preserve">
<path fill="#231F20" d="M0.2,17.5c-0.4-0.9-0.1-1.6,0.9-1.6h5.7c0.7,0,1,0.3,1.2,0.7l5.3,12.2c0.1,0,0.1,0,0.1,0l5.7-12.2
	c0.3-0.7,0.9-0.7,1.6-0.7h5.1c1,0,1.4,0.7,0.9,1.6l-12,24.7c-0.2,0.3-0.5,0.7-1.1,0.7h-0.3c-0.6,0-0.9-0.3-1.1-0.7L0.2,17.5z"/>
<path fill="#231F20" d="M62.3,22.8h-2.2c-0.7,0-1.2-0.6-1.2-1.2v-4.4c0-0.7,0.5-1.2,1.2-1.2h2.2V8.6c0-0.7,0.6-1.2,1.2-1.2L69,7.3
	c0.7,0,1.2,0.6,1.2,1.2v7.4h5.8c0.7,0,1.2,0.5,1.2,1.2v4.4c0,0.7-0.5,1.2-1.2,1.2h-5.8v10.5c0,1.8,1,2.1,2,2.1
	c1.1,0,2.5-0.5,3.2-0.7c0.7-0.3,1.2,0.1,1.4,0.7l1.3,4.1c0.3,0.7-0.1,1.3-0.7,1.6c-0.3,0.2-4.6,1.7-7.8,1.7c-5.1,0-7.3-3.2-7.3-8.5
	V22.8z"/>
<path fill="#231F20" d="M94.5,15.3c6.8,0,12.3,5.1,12.3,12.2c0,0.5-0.1,1.3-0.1,1.8c-0.1,0.7-0.7,1.1-1.2,1.1H88.6
	c0.2,2.7,2.5,5.7,6.3,5.7c2,0,3.9-0.8,5.1-1.6c0.7-0.4,1.2-0.5,1.7,0l2.7,3.1c0.5,0.5,0.6,1.2-0.1,1.7c-2.2,2-5.5,3.6-9.8,3.6
	c-7.9,0-13.5-6.2-13.5-13.8C81.1,21.7,86.7,15.3,94.5,15.3z M99.1,25.8c-0.2-2.4-2.3-4.5-4.8-4.5c-2.6,0-4.8,2-5.1,4.5H99.1z"/>
<path fill="#00ADEE" stroke="#00ADEE" stroke-width="3.235" stroke-linecap="round" stroke-linejoin="round" stroke-miterlimit="10" d="
	M42,15.4c-7.8,0-14.2,6.3-14.2,14.2c0,3.9,1.6,7.4,4.1,9.9l0,8.3l6.8-4.5c1.1,0.3,2.2,0.4,3.3,0.4c7.8,0,14.2-6.3,14.2-14.2
	S49.9,15.4,42,15.4L42,15.4z"/>
<path fill="#FFFFFF" stroke="#FFFFFF" stroke-width="1.4562" stroke-linecap="round" stroke-linejoin="round" stroke-miterlimit="10" d="
	M42,21.2c4.5,0,8.2,3.7,8.2,8.2s-3.7,8.2-8.2,8.2c-0.6,0-1.2-0.1-1.9-0.3L38.7,37l-1.2,0.8l-0.4,0.2l0-0.6l0-1.4l-1-1
	c-1.5-1.6-2.4-3.6-2.4-5.8C33.8,24.8,37.5,21.2,42,21.2"/>
<path fill-rule="evenodd" clip-rule="evenodd" fill="#00ADEE" d="M55.9,4.4c-0.5,0-1,0.2-1.3,0.6l-3.4,3.4l-1,1l0,0
	c-0.3,0.3-0.6,0.8-0.6,1.3c0,1,0.8,1.9,1.9,1.9c0.5,0,1-0.2,1.3-0.6l0,0l1-1l3.4-3.4c0.3-0.3,0.6-0.8,0.6-1.3
	C57.8,5.2,56.9,4.4,55.9,4.4z"/>
<path fill-rule="evenodd" clip-rule="evenodd" fill="#00ADEE" d="M42,8.8c-1,0-1.9-0.8-1.9-1.9v-5C40.2,0.8,41,0,42,0
	c1,0,1.9,0.8,1.9,1.9v5C43.9,8,43.1,8.8,42,8.8"/>
<path fill-rule="evenodd" clip-rule="evenodd" fill="#00ADEE" d="M32.6,12.6c-0.5,0-1-0.2-1.3-0.6l0,0l-1-1l-3.4-3.4
	c-0.3-0.3-0.6-0.8-0.6-1.3c0-1,0.8-1.9,1.9-1.9c0.5,0,1,0.2,1.3,0.6L33,8.4l1,1l0,0c0.3,0.3,0.6,0.8,0.6,1.3
	C34.5,11.7,33.7,12.6,32.6,12.6"/>
</svg>
